<svg xmlns="http://www.w3.org/2000/svg" viewBox="0 0 320 200" width="320" height="200"><rect width="320" height="200" fill="#f4f1ec"/><polyline points="20.0,110.0 24.7,100.5 29.5,91.5 34.2,83.6 39.0,77.0 43.7,72.2 48.5,69.1 53.2,67.8 58.0,68.2 62.7,69.8 67.5,72.4 72.2,75.5 76.9,78.6 81.7,81.4 86.4,83.6 91.2,85.0 95.9,85.5 100.7,85.3 105.4,84.4 110.2,83.4 114.9,82.4 119.7,82.0 124.4,82.6 129.2,84.4 133.9,87.7 138.6,92.5 143.4,98.8 148.1,106.4 152.9,114.9 157.6,124.0 162.4,133.0 167.1,141.5 171.9,148.9 176.6,154.9 181.4,159.1 186.1,161.3 190.8,161.5 195.6,159.9 200.3,156.7 205.1,152.2 209.8,147.0 214.6,141.6 219.3,136.2 224.1,131.4 228.8,127.5 233.6,124.5 238.3,122.5 243.1,121.3 247.8,120.8 252.5,120.6 257.3,120.3 262.0,119.5 266.8,117.9 271.5,115.1 276.3,111.2 281.0,105.9 285.8,99.6 290.5,92.4 295.3,84.7 300.0,77.0" fill="none" stroke="#155e75" stroke-width="1" opacity="0.2"/><polyline points="20.0,97.2 24.7,90.7 29.5,86.4 34.2,84.4 39.0,84.3 43.7,85.5 48.5,87.2 53.2,88.6 58.0,89.0 62.7,88.0 67.5,85.3 72.2,81.0 76.9,75.7 81.7,70.1 86.4,64.9 91.2,61.1 95.9,59.3 100.7,60.0 105.4,63.5 110.2,69.6 114.9,77.8 119.7,87.3 124.4,97.2 129.2,106.7 133.9,114.8 138.6,121.1 143.4,125.3 148.1,127.3 152.9,127.6 157.6,126.8 162.4,125.7 167.1,125.1 171.9,125.5 176.6,127.6 181.4,131.3 186.1,136.7 190.8,143.0 195.6,149.7 200.3,155.9 205.1,160.6 209.8,163.3 214.6,163.3 219.3,160.5 224.1,155.1 228.8,147.6 233.6,138.7 238.3,129.4 243.1,120.5 247.8,112.8 252.5,107.0 257.3,103.1 262.0,101.2 266.8,100.9 271.5,101.5 276.3,102.2 281.0,102.3 285.8,101.1 290.5,98.2 295.3,93.5 300.0,87.2" fill="none" stroke="#155e75" stroke-width="1" opacity="0.2"/><polyline points="20.0,98.4 24.7,98.5 29.5,100.0 34.2,101.8 39.0,102.4 43.7,100.7 48.5,96.4 53.2,89.5 58.0,80.8 62.7,71.7 67.5,63.5 72.2,57.6 76.9,55.0 81.7,56.2 86.4,60.7 91.2,67.8 95.9,76.1 100.7,84.1 105.4,90.6 110.2,94.6 114.9,96.0 119.7,95.2 124.4,93.2 129.2,91.2 133.9,90.7 138.6,92.7 143.4,97.8 148.1,105.8 152.9,116.1 157.6,127.4 162.4,138.2 167.1,147.1 171.9,153.0 176.6,155.3 181.4,154.3 186.1,150.7 190.8,145.8 195.6,141.0 200.3,137.5 205.1,136.3 209.8,137.6 214.6,141.0 219.3,145.5 224.1,149.7 228.8,152.4 233.6,152.3 238.3,148.8 243.1,141.9 247.8,132.2 252.5,121.0 257.3,109.6 262.0,99.7 266.8,92.3 271.5,88.0 276.3,86.7 281.0,87.9 285.8,90.2 290.5,92.3 295.3,93.0 300.0,91.4" fill="none" stroke="#155e75" stroke-width="1" opacity="0.2"/><polyline points="20.0,112.3 24.7,114.3 29.5,113.7 34.2,109.4 39.0,101.2 43.7,90.4 48.5,78.7 53.2,68.6 58.0,62.0 62.7,60.0 67.5,62.4 72.2,68.1 76.9,74.9 81.7,80.8 86.4,84.0 91.2,83.6 95.9,80.1 100.7,74.9 105.4,70.1 110.2,67.8 114.9,69.6 119.7,75.9 124.4,86.0 129.2,98.2 133.9,110.2 138.6,120.0 143.4,126.0 148.1,127.9 152.9,126.4 157.6,123.4 162.4,121.0 167.1,121.0 171.9,124.7 176.6,132.0 181.4,141.6 186.1,151.7 190.8,159.9 195.6,164.3 200.3,164.1 205.1,159.4 209.8,151.6 214.6,142.8 219.3,135.1 224.1,130.3 228.8,129.1 233.6,131.1 238.3,134.8 243.1,138.1 247.8,138.9 252.5,135.7 257.3,128.3 262.0,117.3 266.8,104.7 271.5,92.7 276.3,83.3 281.0,78.0 285.8,77.1 290.5,79.5 295.3,83.6 300.0,87.2" fill="none" stroke="#155e75" stroke-width="1" opacity="0.2"/><polyline points="20.0,123.7 24.7,118.7 29.5,108.8 34.2,95.8 39.0,82.8 43.7,73.1 48.5,68.7 53.2,69.9 58.0,74.9 62.7,80.9 67.5,84.8 72.2,84.3 76.9,79.3 81.7,71.2 86.4,63.0 91.2,57.8 95.9,58.0 100.7,64.0 105.4,74.4 110.2,86.3 114.9,96.4 119.7,102.3 124.4,103.3 129.2,100.4 133.9,96.5 138.6,94.7 143.4,97.3 148.1,105.3 152.9,117.4 157.6,130.8 162.4,142.3 167.1,149.3 171.9,150.5 176.6,146.9 181.4,141.0 186.1,136.0 190.8,134.6 195.6,137.9 200.3,145.1 205.1,153.8 209.8,160.7 214.6,163.2 219.3,159.7 224.1,151.0 228.8,139.5 233.6,128.3 238.3,120.5 243.1,117.5 247.8,119.0 252.5,122.9 257.3,126.0 262.0,125.6 266.8,119.8 271.5,109.3 276.3,96.0 281.0,83.2 285.8,74.0 290.5,70.2 295.3,71.9 300.0,77.0" fill="none" stroke="#155e75" stroke-width="1" opacity="0.2"/><polyline points="20.0,120.2 24.7,106.3 29.5,92.0 34.2,81.5 39.0,77.6 43.7,80.1 48.5,85.9 53.2,90.6 58.0,90.5 62.7,84.3 67.5,73.7 72.2,62.7 76.9,55.8 81.7,55.7 86.4,62.5 91.2,73.1 95.9,83.2 100.7,88.8 105.4,88.3 110.2,83.1 114.9,77.1 119.7,74.6 124.4,78.6 129.2,89.2 133.9,103.6 138.6,117.2 143.4,126.1 148.1,128.4 152.9,125.1 157.6,120.1 162.4,117.7 167.1,120.9 171.9,130.2 176.6,142.9 181.4,154.7 186.1,161.5 190.8,161.0 195.6,154.4 200.3,145.3 205.1,138.0 209.8,136.0 214.6,139.9 219.3,147.3 224.1,154.1 228.8,156.0 233.6,151.0 238.3,139.7 243.1,125.8 247.8,113.7 252.5,107.1 257.3,106.9 262.0,111.0 266.8,115.3 271.5,115.6 276.3,109.6 281.0,97.9 285.8,83.8 290.5,71.9 295.3,65.8 300.0,66.8" fill="none" stroke="#155e75" stroke-width="1" opacity="0.2"/><polyline points="20.0,105.5 24.7,92.3 29.5,86.3 34.2,88.1 39.0,94.3 43.7,98.7 48.5,96.7 53.2,87.3 58.0,73.7 62.7,62.0 67.5,57.3 72.2,61.2 76.9,70.7 81.7,80.1 86.4,84.0 91.2,80.4 95.9,72.0 100.7,64.2 105.4,62.7 110.2,69.8 114.9,83.2 119.7,97.4 124.4,106.7 129.2,108.2 133.9,103.7 138.6,98.2 143.4,97.5 148.1,104.8 152.9,118.6 157.6,133.9 162.4,144.7 167.1,147.3 171.9,142.6 176.6,135.2 181.4,131.1 186.1,134.2 190.8,143.9 195.6,155.9 200.3,164.0 205.1,164.1 209.8,156.1 214.6,144.1 219.3,134.2 224.1,130.9 228.8,134.9 233.6,142.2 238.3,147.0 243.1,144.6 247.8,133.9 252.5,118.7 257.3,104.7 262.0,97.3 266.8,97.8 271.5,103.2 276.3,107.9 281.0,106.5 285.8,97.4 290.5,83.2 295.3,69.8 300.0,62.6" fill="none" stroke="#155e75" stroke-width="1" opacity="0.2"/><polyline points="20.0,95.8 24.7,93.9 29.5,99.5 34.2,105.7 39.0,105.2 43.7,95.4 48.5,80.0 53.2,66.9 58.0,62.3 62.7,67.5 67.5,77.3 72.2,83.9 76.9,81.9 81.7,72.2 86.4,61.2 91.2,56.3 95.9,61.6 100.7,74.6 105.4,88.0 110.2,94.6 114.9,92.2 119.7,84.6 124.4,79.7 129.2,83.4 133.9,96.4 138.6,113.1 143.4,125.6 148.1,128.8 152.9,123.9 157.6,117.2 162.4,116.3 167.1,124.8 171.9,139.5 176.6,153.3 181.4,159.0 186.1,154.7 190.8,144.8 195.6,137.1 200.3,137.5 205.1,146.1 209.8,157.1 214.6,162.9 219.3,158.8 224.1,146.2 228.8,132.2 233.6,124.1 238.3,125.1 243.1,132.2 247.8,137.9 252.5,135.4 257.3,123.4 262.0,106.7 266.8,93.2 271.5,88.6 276.3,92.8 281.0,99.9 285.8,102.0 290.5,95.0 295.3,80.9 300.0,66.8" fill="none" stroke="#155e75" stroke-width="1" opacity="0.2"/><polyline points="20.0,110.0 24.7,105.0 29.5,100.1 34.2,95.3 39.0,90.8 43.7,86.5 48.5,82.6 53.2,79.2 58.0,76.1 62.7,73.6 67.5,71.6 72.2,70.2 76.9,69.4 81.7,69.2 86.4,69.6 91.2,70.6 95.9,72.2 100.7,74.4 105.4,77.1 110.2,80.3 114.9,84.0 119.7,88.0 124.4,92.4 129.2,97.0 133.9,101.8 138.6,106.7 143.4,111.7 148.1,116.7 152.9,121.6 157.6,126.3 162.4,130.7 167.1,134.9 171.9,138.6 176.6,142.0 181.4,144.8 186.1,147.2 190.8,148.9 195.6,150.1 200.3,150.7 205.1,150.7 209.8,150.1 214.6,148.9 219.3,147.1 224.1,144.7 228.8,141.8 233.6,138.5 238.3,134.7 243.1,130.5 247.8,126.1 252.5,121.4 257.3,116.5 262.0,111.5 266.8,106.5 271.5,101.6 276.3,96.8 281.0,92.2 285.8,87.8 290.5,83.8 295.3,80.2 300.0,77.0" fill="none" stroke="#b7791f" stroke-width="3.5" /><circle cx="34.0" cy="87.6" r="3.0" fill="#2563eb" opacity="0.5"/><circle cx="62.0" cy="81.9" r="3.0" fill="#2563eb" opacity="0.5"/><circle cx="90.0" cy="62.3" r="3.0" fill="#2563eb" opacity="0.5"/><circle cx="118.0" cy="94.5" r="3.0" fill="#2563eb" opacity="0.5"/><circle cx="146.0" cy="106.5" r="3.0" fill="#2563eb" opacity="0.5"/><circle cx="174.0" cy="148.2" r="3.0" fill="#2563eb" opacity="0.5"/><circle cx="202.0" cy="142.8" r="3.0" fill="#2563eb" opacity="0.5"/><circle cx="230.0" cy="149.0" r="3.0" fill="#2563eb" opacity="0.5"/><circle cx="258.0" cy="107.7" r="3.0" fill="#2563eb" opacity="0.5"/><circle cx="286.0" cy="95.6" r="3.0" fill="#2563eb" opacity="0.5"/></svg>