<svg xmlns="http://www.w3.org/2000/svg" viewBox="0 0 320 200" width="320" height="200"><rect width="320" height="200" fill="#f4f1ec"/><rect x="40.0" y="30.0" width="38.0" height="32.0" fill="rgb(88,134,235)" rx="3"/><rect x="80.0" y="30.0" width="38.0" height="32.0" fill="rgb(187,97,90)" rx="3"/><rect x="120.0" y="30.0" width="38.0" height="32.0" fill="rgb(181,198,235)" rx="3"/><rect x="160.0" y="30.0" width="38.0" height="32.0" fill="rgb(215,169,162)" rx="3"/><rect x="200.0" y="30.0" width="38.0" height="32.0" fill="rgb(119,155,235)" rx="3"/><rect x="40.0" y="64.0" width="38.0" height="32.0" fill="rgb(206,145,138)" rx="3"/><rect x="80.0" y="64.0" width="38.0" height="32.0" fill="rgb(140,170,235)" rx="3"/><rect x="120.0" y="64.0" width="38.0" height="32.0" fill="rgb(196,121,114)" rx="3"/><rect x="160.0" y="64.0" width="38.0" height="32.0" fill="rgb(202,212,235)" rx="3"/><rect x="200.0" y="64.0" width="38.0" height="32.0" fill="rgb(221,185,178)" rx="3"/><rect x="40.0" y="98.0" width="38.0" height="32.0" fill="rgb(161,184,235)" rx="3"/><rect x="80.0" y="98.0" width="38.0" height="32.0" fill="rgb(203,137,130)" rx="3"/><rect x="120.0" y="98.0" width="38.0" height="32.0" fill="rgb(78,127,235)" rx="3"/><rect x="160.0" y="98.0" width="38.0" height="32.0" fill="rgb(212,161,154)" rx="3"/><rect x="200.0" y="98.0" width="38.0" height="32.0" fill="rgb(192,205,235)" rx="3"/><rect x="40.0" y="132.0" width="38.0" height="32.0" fill="rgb(215,169,162)" rx="3"/><rect x="80.0" y="132.0" width="38.0" height="32.0" fill="rgb(99,141,235)" rx="3"/><rect x="120.0" y="132.0" width="38.0" height="32.0" fill="rgb(225,193,186)" rx="3"/><rect x="160.0" y="132.0" width="38.0" height="32.0" fill="rgb(130,162,235)" rx="3"/><rect x="200.0" y="132.0" width="38.0" height="32.0" fill="rgb(199,129,122)" rx="3"/><rect x="37.0" y="27.0" width="40.0" height="136.0" fill="none" stroke="#b7791f" stroke-width="3" rx="3"/></svg>