<svg xmlns="http://www.w3.org/2000/svg" viewBox="0 0 320 200"><rect width="320" height="200" fill="#f6f8f7"/><rect x="20.0" y="60.0" width="16.0" height="16.0" rx="2" fill="rgb(32,106,79)" opacity="1"/><rect x="38.0" y="60.0" width="16.0" height="16.0" rx="2" fill="rgb(133,172,157)" opacity="1"/><rect x="56.0" y="60.0" width="16.0" height="16.0" rx="2" fill="rgb(225,233,229)" opacity="1"/><rect x="74.0" y="60.0" width="16.0" height="16.0" rx="2" fill="rgb(238,242,240)" opacity="1"/><rect x="92.0" y="60.0" width="16.0" height="16.0" rx="2" fill="rgb(239,242,240)" opacity="1"/><rect x="20.0" y="78.0" width="16.0" height="16.0" rx="2" fill="rgb(133,172,157)" opacity="1"/><rect x="38.0" y="78.0" width="16.0" height="16.0" rx="2" fill="rgb(32,106,79)" opacity="1"/><rect x="56.0" y="78.0" width="16.0" height="16.0" rx="2" fill="rgb(133,172,157)" opacity="1"/><rect x="74.0" y="78.0" width="16.0" height="16.0" rx="2" fill="rgb(225,233,229)" opacity="1"/><rect x="92.0" y="78.0" width="16.0" height="16.0" rx="2" fill="rgb(238,242,240)" opacity="1"/><rect x="20.0" y="96.0" width="16.0" height="16.0" rx="2" fill="rgb(225,233,229)" opacity="1"/><rect x="38.0" y="96.0" width="16.0" height="16.0" rx="2" fill="rgb(133,172,157)" opacity="1"/><rect x="56.0" y="96.0" width="16.0" height="16.0" rx="2" fill="rgb(32,106,79)" opacity="1"/><rect x="74.0" y="96.0" width="16.0" height="16.0" rx="2" fill="rgb(133,172,157)" opacity="1"/><rect x="92.0" y="96.0" width="16.0" height="16.0" rx="2" fill="rgb(225,233,229)" opacity="1"/><rect x="20.0" y="114.0" width="16.0" height="16.0" rx="2" fill="rgb(238,242,240)" opacity="1"/><rect x="38.0" y="114.0" width="16.0" height="16.0" rx="2" fill="rgb(225,233,229)" opacity="1"/><rect x="56.0" y="114.0" width="16.0" height="16.0" rx="2" fill="rgb(133,172,157)" opacity="1"/><rect x="74.0" y="114.0" width="16.0" height="16.0" rx="2" fill="rgb(32,106,79)" opacity="1"/><rect x="92.0" y="114.0" width="16.0" height="16.0" rx="2" fill="rgb(133,172,157)" opacity="1"/><rect x="20.0" y="132.0" width="16.0" height="16.0" rx="2" fill="rgb(239,242,240)" opacity="1"/><rect x="38.0" y="132.0" width="16.0" height="16.0" rx="2" fill="rgb(238,242,240)" opacity="1"/><rect x="56.0" y="132.0" width="16.0" height="16.0" rx="2" fill="rgb(225,233,229)" opacity="1"/><rect x="74.0" y="132.0" width="16.0" height="16.0" rx="2" fill="rgb(133,172,157)" opacity="1"/><rect x="92.0" y="132.0" width="16.0" height="16.0" rx="2" fill="rgb(32,106,79)" opacity="1"/><rect x="125.0" y="60.0" width="16.0" height="16.0" rx="2" fill="rgb(152,183,191)" opacity="1"/><rect x="143.0" y="60.0" width="16.0" height="16.0" rx="2" fill="rgb(222,230,230)" opacity="1"/><rect x="161.0" y="60.0" width="16.0" height="16.0" rx="2" fill="rgb(222,230,230)" opacity="1"/><rect x="179.0" y="60.0" width="16.0" height="16.0" rx="2" fill="rgb(222,230,230)" opacity="1"/><rect x="197.0" y="60.0" width="16.0" height="16.0" rx="2" fill="rgb(222,230,230)" opacity="1"/><rect x="125.0" y="78.0" width="16.0" height="16.0" rx="2" fill="rgb(222,230,230)" opacity="1"/><rect x="143.0" y="78.0" width="16.0" height="16.0" rx="2" fill="rgb(152,183,191)" opacity="1"/><rect x="161.0" y="78.0" width="16.0" height="16.0" rx="2" fill="rgb(222,230,230)" opacity="1"/><rect x="179.0" y="78.0" width="16.0" height="16.0" rx="2" fill="rgb(222,230,230)" opacity="1"/><rect x="197.0" y="78.0" width="16.0" height="16.0" rx="2" fill="rgb(222,230,230)" opacity="1"/><rect x="125.0" y="96.0" width="16.0" height="16.0" rx="2" fill="rgb(222,230,230)" opacity="1"/><rect x="143.0" y="96.0" width="16.0" height="16.0" rx="2" fill="rgb(222,230,230)" opacity="1"/><rect x="161.0" y="96.0" width="16.0" height="16.0" rx="2" fill="rgb(152,183,191)" opacity="1"/><rect x="179.0" y="96.0" width="16.0" height="16.0" rx="2" fill="rgb(222,230,230)" opacity="1"/><rect x="197.0" y="96.0" width="16.0" height="16.0" rx="2" fill="rgb(222,230,230)" opacity="1"/><rect x="125.0" y="114.0" width="16.0" height="16.0" rx="2" fill="rgb(222,230,230)" opacity="1"/><rect x="143.0" y="114.0" width="16.0" height="16.0" rx="2" fill="rgb(222,230,230)" opacity="1"/><rect x="161.0" y="114.0" width="16.0" height="16.0" rx="2" fill="rgb(222,230,230)" opacity="1"/><rect x="179.0" y="114.0" width="16.0" height="16.0" rx="2" fill="rgb(152,183,191)" opacity="1"/><rect x="197.0" y="114.0" width="16.0" height="16.0" rx="2" fill="rgb(222,230,230)" opacity="1"/><rect x="125.0" y="132.0" width="16.0" height="16.0" rx="2" fill="rgb(21,94,117)" opacity="1"/><rect x="143.0" y="132.0" width="16.0" height="16.0" rx="2" fill="rgb(222,230,230)" opacity="1"/><rect x="161.0" y="132.0" width="16.0" height="16.0" rx="2" fill="rgb(222,230,230)" opacity="1"/><rect x="179.0" y="132.0" width="16.0" height="16.0" rx="2" fill="rgb(222,230,230)" opacity="1"/><rect x="197.0" y="132.0" width="16.0" height="16.0" rx="2" fill="rgb(152,183,191)" opacity="1"/><rect x="230.0" y="60.0" width="16.0" height="16.0" rx="2" fill="rgb(186,127,41)" opacity="1"/><rect x="248.0" y="60.0" width="16.0" height="16.0" rx="2" fill="rgb(233,230,219)" opacity="1"/><rect x="266.0" y="60.0" width="16.0" height="16.0" rx="2" fill="rgb(233,230,219)" opacity="1"/><rect x="284.0" y="60.0" width="16.0" height="16.0" rx="2" fill="rgb(233,230,219)" opacity="1"/><rect x="302.0" y="60.0" width="16.0" height="16.0" rx="2" fill="rgb(233,230,219)" opacity="1"/><rect x="230.0" y="78.0" width="16.0" height="16.0" rx="2" fill="rgb(186,127,41)" opacity="1"/><rect x="248.0" y="78.0" width="16.0" height="16.0" rx="2" fill="rgb(233,230,219)" opacity="1"/><rect x="266.0" y="78.0" width="16.0" height="16.0" rx="2" fill="rgb(233,230,219)" opacity="1"/><rect x="284.0" y="78.0" width="16.0" height="16.0" rx="2" fill="rgb(233,230,219)" opacity="1"/><rect x="302.0" y="78.0" width="16.0" height="16.0" rx="2" fill="rgb(233,230,219)" opacity="1"/><rect x="230.0" y="96.0" width="16.0" height="16.0" rx="2" fill="rgb(186,127,41)" opacity="1"/><rect x="248.0" y="96.0" width="16.0" height="16.0" rx="2" fill="rgb(233,230,219)" opacity="1"/><rect x="266.0" y="96.0" width="16.0" height="16.0" rx="2" fill="rgb(233,230,219)" opacity="1"/><rect x="284.0" y="96.0" width="16.0" height="16.0" rx="2" fill="rgb(233,230,219)" opacity="1"/><rect x="302.0" y="96.0" width="16.0" height="16.0" rx="2" fill="rgb(233,230,219)" opacity="1"/><rect x="230.0" y="114.0" width="16.0" height="16.0" rx="2" fill="rgb(186,127,41)" opacity="1"/><rect x="248.0" y="114.0" width="16.0" height="16.0" rx="2" fill="rgb(233,230,219)" opacity="1"/><rect x="266.0" y="114.0" width="16.0" height="16.0" rx="2" fill="rgb(233,230,219)" opacity="1"/><rect x="284.0" y="114.0" width="16.0" height="16.0" rx="2" fill="rgb(233,230,219)" opacity="1"/><rect x="302.0" y="114.0" width="16.0" height="16.0" rx="2" fill="rgb(233,230,219)" opacity="1"/><rect x="230.0" y="132.0" width="16.0" height="16.0" rx="2" fill="rgb(186,127,41)" opacity="1"/><rect x="248.0" y="132.0" width="16.0" height="16.0" rx="2" fill="rgb(233,230,219)" opacity="1"/><rect x="266.0" y="132.0" width="16.0" height="16.0" rx="2" fill="rgb(233,230,219)" opacity="1"/><rect x="284.0" y="132.0" width="16.0" height="16.0" rx="2" fill="rgb(233,230,219)" opacity="1"/><rect x="302.0" y="132.0" width="16.0" height="16.0" rx="2" fill="rgb(233,230,219)" opacity="1"/><text x="65.0" y="52.0" text-anchor="middle" font-family="-apple-system,Segoe UI,PingFang SC,Microsoft YaHei,sans-serif" font-size="11" font-weight="600" fill="#9aa5a3">相邻</text><text x="170.0" y="52.0" text-anchor="middle" font-family="-apple-system,Segoe UI,PingFang SC,Microsoft YaHei,sans-serif" font-size="11" font-weight="600" fill="#9aa5a3">指代</text><text x="275.0" y="52.0" text-anchor="middle" font-family="-apple-system,Segoe UI,PingFang SC,Microsoft YaHei,sans-serif" font-size="11" font-weight="600" fill="#9aa5a3">句首</text></svg>