<svg xmlns="http://www.w3.org/2000/svg" viewBox="0 0 320 200" width="320" height="200"><rect width="320" height="200" fill="#f6f8f7"/><rect x="80" y="20" width="40" height="40" rx="4" fill="#e4edf0" stroke="#b9c2c7" stroke-width="1.2"/><rect x="120" y="20" width="40" height="40" rx="4" fill="#e4edf0" stroke="#b9c2c7" stroke-width="1.2"/><rect x="160" y="20" width="40" height="40" rx="4" fill="#e4edf0" stroke="#b9c2c7" stroke-width="1.2"/><rect x="200" y="20" width="40" height="40" rx="4" fill="#f7ecc8" stroke="#b9c2c7" stroke-width="1.2"/><rect x="80" y="60" width="40" height="40" rx="4" fill="#e4edf0" stroke="#b9c2c7" stroke-width="1.2"/><rect x="120" y="60" width="40" height="40" rx="4" fill="#9aa6a3" stroke="#b9c2c7" stroke-width="1.2"/><rect x="160" y="60" width="40" height="40" rx="4" fill="#e4edf0" stroke="#b9c2c7" stroke-width="1.2"/><rect x="200" y="60" width="40" height="40" rx="4" fill="#f3cdc8" stroke="#b9c2c7" stroke-width="1.2"/><rect x="80" y="100" width="40" height="40" rx="4" fill="#e4edf0" stroke="#b9c2c7" stroke-width="1.2"/><rect x="120" y="100" width="40" height="40" rx="4" fill="#e4edf0" stroke="#b9c2c7" stroke-width="1.2"/><rect x="160" y="100" width="40" height="40" rx="4" fill="#9aa6a3" stroke="#b9c2c7" stroke-width="1.2"/><rect x="200" y="100" width="40" height="40" rx="4" fill="#e4edf0" stroke="#b9c2c7" stroke-width="1.2"/><rect x="80" y="140" width="40" height="40" rx="4" fill="#e4edf0" stroke="#b9c2c7" stroke-width="1.2"/><rect x="120" y="140" width="40" height="40" rx="4" fill="#e4edf0" stroke="#b9c2c7" stroke-width="1.2"/><rect x="160" y="140" width="40" height="40" rx="4" fill="#e4edf0" stroke="#b9c2c7" stroke-width="1.2"/><rect x="200" y="140" width="40" height="40" rx="4" fill="#e4edf0" stroke="#b9c2c7" stroke-width="1.2"/><text x="220" y="46" text-anchor="middle" font-family="-apple-system,Segoe UI,PingFang SC,Microsoft YaHei,sans-serif" font-size="20" font-weight="700" fill="#b7791f">★</text><text x="220" y="86" text-anchor="middle" font-family="-apple-system,Segoe UI,PingFang SC,Microsoft YaHei,sans-serif" font-size="18" font-weight="700" fill="#b5524a">☠</text><circle cx="100" cy="160" r="9" fill="#266a4f" stroke="#fff" stroke-width="2"/><text x="100" y="164" text-anchor="middle" font-family="-apple-system,Segoe UI,PingFang SC,Microsoft YaHei,sans-serif" font-size="12" font-weight="700" fill="#fff">S</text><line x1="100" y1="149" x2="100" y2="137.3" stroke="#b7791f" stroke-width="2.8" stroke-linecap="round"/><polygon points="100,131 103.5,137.1 96.5,137.1" fill="#b7791f"/><line x1="100" y1="109" x2="100" y2="97.3" stroke="#b7791f" stroke-width="2.8" stroke-linecap="round"/><polygon points="100,91 103.5,97.1 96.5,97.1" fill="#b7791f"/><line x1="100" y1="69" x2="100" y2="57.3" stroke="#b7791f" stroke-width="2.8" stroke-linecap="round"/><polygon points="100,51 103.5,57.1 96.5,57.1" fill="#b7791f"/><line x1="111" y1="40" x2="122.7" y2="40" stroke="#b7791f" stroke-width="2.8" stroke-linecap="round"/><polygon points="129,40 122.9,43.5 122.9,36.5" fill="#b7791f"/><line x1="151" y1="40" x2="162.7" y2="40" stroke="#b7791f" stroke-width="2.8" stroke-linecap="round"/><polygon points="169,40 162.9,43.5 162.9,36.5" fill="#b7791f"/><line x1="191" y1="40" x2="202.7" y2="40" stroke="#b7791f" stroke-width="2.8" stroke-linecap="round"/><polygon points="209,40 202.9,43.5 202.9,36.5" fill="#b7791f"/><text x="160" y="190" text-anchor="middle" font-family="-apple-system,Segoe UI,PingFang SC,Microsoft YaHei,sans-serif" font-size="11" font-weight="600" fill="#9aa3a8">试错学策略（无模型）</text></svg>