<svg xmlns="http://www.w3.org/2000/svg" viewBox="0 0 320 200" width="320" height="200"><rect width="320" height="200" fill="#f6f8f7"/><line x1="100" y1="81" x2="60" y2="139" stroke="#b9c2c7" stroke-width="1" opacity="0.65"/><line x1="100" y1="81" x2="98" y2="139" stroke="#b9c2c7" stroke-width="1" opacity="0.65"/><line x1="100" y1="81" x2="136" y2="139" stroke="#b9c2c7" stroke-width="1" opacity="0.65"/><line x1="100" y1="81" x2="174" y2="139" stroke="#b9c2c7" stroke-width="1" opacity="0.65"/><line x1="100" y1="81" x2="212" y2="139" stroke="#b9c2c7" stroke-width="1" opacity="0.65"/><line x1="100" y1="81" x2="250" y2="139" stroke="#b9c2c7" stroke-width="1" opacity="0.65"/><line x1="160" y1="81" x2="60" y2="139" stroke="#b9c2c7" stroke-width="1" opacity="0.65"/><line x1="160" y1="81" x2="98" y2="139" stroke="#b9c2c7" stroke-width="1" opacity="0.65"/><line x1="160" y1="81" x2="136" y2="139" stroke="#b9c2c7" stroke-width="1" opacity="0.65"/><line x1="160" y1="81" x2="174" y2="139" stroke="#b9c2c7" stroke-width="1" opacity="0.65"/><line x1="160" y1="81" x2="212" y2="139" stroke="#b9c2c7" stroke-width="1" opacity="0.65"/><line x1="160" y1="81" x2="250" y2="139" stroke="#b9c2c7" stroke-width="1" opacity="0.65"/><line x1="220" y1="81" x2="60" y2="139" stroke="#b9c2c7" stroke-width="1" opacity="0.65"/><line x1="220" y1="81" x2="98" y2="139" stroke="#b9c2c7" stroke-width="1" opacity="0.65"/><line x1="220" y1="81" x2="136" y2="139" stroke="#b9c2c7" stroke-width="1" opacity="0.65"/><line x1="220" y1="81" x2="174" y2="139" stroke="#b9c2c7" stroke-width="1" opacity="0.65"/><line x1="220" y1="81" x2="212" y2="139" stroke="#b9c2c7" stroke-width="1" opacity="0.65"/><line x1="220" y1="81" x2="250" y2="139" stroke="#b9c2c7" stroke-width="1" opacity="0.65"/><line x1="284" y1="148" x2="284" y2="89.2" stroke="#266a4f" stroke-width="2.4" stroke-linecap="round"/><polygon points="284,82 288,88.9 280,88.9" fill="#266a4f"/><text x="300" y="118" text-anchor="middle" font-family="-apple-system,Segoe UI,PingFang SC,Microsoft YaHei,sans-serif" font-size="10" font-weight="600" fill="#266a4f">编</text><line x1="26" y1="82" x2="26" y2="140.8" stroke="#b7791f" stroke-width="2.4" stroke-linecap="round"/><polygon points="26,148 22,141.1 30,141.1" fill="#b7791f"/><text x="12" y="118" text-anchor="middle" font-family="-apple-system,Segoe UI,PingFang SC,Microsoft YaHei,sans-serif" font-size="10" font-weight="600" fill="#b7791f">构</text><rect x="49" y="139" width="22" height="22" rx="4" fill="#2a3b36" stroke="#155e75" stroke-width="1.4"/><rect x="87" y="139" width="22" height="22" rx="4" fill="#dfe6e3" stroke="#155e75" stroke-width="1.4"/><rect x="125" y="139" width="22" height="22" rx="4" fill="#2a3b36" stroke="#155e75" stroke-width="1.4"/><rect x="163" y="139" width="22" height="22" rx="4" fill="#dfe6e3" stroke="#155e75" stroke-width="1.4"/><rect x="201" y="139" width="22" height="22" rx="4" fill="#dfe6e3" stroke="#155e75" stroke-width="1.4"/><rect x="239" y="139" width="22" height="22" rx="4" fill="#2a3b36" stroke="#155e75" stroke-width="1.4"/><circle cx="100" cy="68" r="15" fill="#155e75" stroke="#fff" stroke-width="2"/><circle cx="160" cy="68" r="15" fill="#155e75" stroke="#fff" stroke-width="2"/><circle cx="220" cy="68" r="15" fill="#155e75" stroke="#fff" stroke-width="2"/><text x="160" y="32" text-anchor="middle" font-family="-apple-system,Segoe UI,PingFang SC,Microsoft YaHei,sans-serif" font-size="11" font-weight="600" fill="#155e75">隐单元（特征）</text><text x="160" y="190" text-anchor="middle" font-family="-apple-system,Segoe UI,PingFang SC,Microsoft YaHei,sans-serif" font-size="11" font-weight="600" fill="#2a3b36">可见单元（含噪输入）</text></svg>