<svg xmlns="http://www.w3.org/2000/svg" viewBox="0 0 320 200" width="320" height="200"><rect width="320" height="200" fill="#f4f1ec"/><polygon points="160.0,40.0 70.0,168.0 250.0,168.0" fill="#155e75" opacity="0.16"/><circle cx="70.0" cy="168.0" r="5.0" fill="#cdd6db" stroke="#fff"/><circle cx="88.0" cy="168.0" r="5.0" fill="#155e75" stroke="#fff"/><circle cx="106.0" cy="168.0" r="5.0" fill="#155e75" stroke="#fff"/><circle cx="124.0" cy="168.0" r="5.0" fill="#155e75" stroke="#fff"/><circle cx="142.0" cy="168.0" r="5.0" fill="#155e75" stroke="#fff"/><circle cx="160.0" cy="168.0" r="5.0" fill="#155e75" stroke="#fff"/><circle cx="178.0" cy="168.0" r="5.0" fill="#155e75" stroke="#fff"/><circle cx="196.0" cy="168.0" r="5.0" fill="#155e75" stroke="#fff"/><circle cx="214.0" cy="168.0" r="5.0" fill="#155e75" stroke="#fff"/><circle cx="232.0" cy="168.0" r="5.0" fill="#155e75" stroke="#fff"/><circle cx="250.0" cy="168.0" r="5.0" fill="#cdd6db" stroke="#fff"/><circle cx="70.0" cy="138.0" r="5.0" fill="#cdd6db" stroke="#fff"/><circle cx="88.0" cy="138.0" r="5.0" fill="#cdd6db" stroke="#fff"/><circle cx="106.0" cy="138.0" r="5.0" fill="#155e75" stroke="#fff"/><circle cx="124.0" cy="138.0" r="5.0" fill="#155e75" stroke="#fff"/><circle cx="142.0" cy="138.0" r="5.0" fill="#155e75" stroke="#fff"/><circle cx="160.0" cy="138.0" r="5.0" fill="#155e75" stroke="#fff"/><circle cx="178.0" cy="138.0" r="5.0" fill="#155e75" stroke="#fff"/><circle cx="196.0" cy="138.0" r="5.0" fill="#155e75" stroke="#fff"/><circle cx="214.0" cy="138.0" r="5.0" fill="#155e75" stroke="#fff"/><circle cx="232.0" cy="138.0" r="5.0" fill="#cdd6db" stroke="#fff"/><circle cx="250.0" cy="138.0" r="5.0" fill="#cdd6db" stroke="#fff"/><circle cx="70.0" cy="108.0" r="5.0" fill="#cdd6db" stroke="#fff"/><circle cx="88.0" cy="108.0" r="5.0" fill="#cdd6db" stroke="#fff"/><circle cx="106.0" cy="108.0" r="5.0" fill="#cdd6db" stroke="#fff"/><circle cx="124.0" cy="108.0" r="5.0" fill="#155e75" stroke="#fff"/><circle cx="142.0" cy="108.0" r="5.0" fill="#155e75" stroke="#fff"/><circle cx="160.0" cy="108.0" r="5.0" fill="#155e75" stroke="#fff"/><circle cx="178.0" cy="108.0" r="5.0" fill="#155e75" stroke="#fff"/><circle cx="196.0" cy="108.0" r="5.0" fill="#155e75" stroke="#fff"/><circle cx="214.0" cy="108.0" r="5.0" fill="#cdd6db" stroke="#fff"/><circle cx="232.0" cy="108.0" r="5.0" fill="#cdd6db" stroke="#fff"/><circle cx="250.0" cy="108.0" r="5.0" fill="#cdd6db" stroke="#fff"/><circle cx="70.0" cy="78.0" r="5.0" fill="#cdd6db" stroke="#fff"/><circle cx="88.0" cy="78.0" r="5.0" fill="#cdd6db" stroke="#fff"/><circle cx="106.0" cy="78.0" r="5.0" fill="#cdd6db" stroke="#fff"/><circle cx="124.0" cy="78.0" r="5.0" fill="#cdd6db" stroke="#fff"/><circle cx="142.0" cy="78.0" r="5.0" fill="#155e75" stroke="#fff"/><circle cx="160.0" cy="78.0" r="5.0" fill="#155e75" stroke="#fff"/><circle cx="178.0" cy="78.0" r="5.0" fill="#155e75" stroke="#fff"/><circle cx="196.0" cy="78.0" r="5.0" fill="#cdd6db" stroke="#fff"/><circle cx="214.0" cy="78.0" r="5.0" fill="#cdd6db" stroke="#fff"/><circle cx="232.0" cy="78.0" r="5.0" fill="#cdd6db" stroke="#fff"/><circle cx="250.0" cy="78.0" r="5.0" fill="#cdd6db" stroke="#fff"/><circle cx="70.0" cy="48.0" r="5.0" fill="#cdd6db" stroke="#fff"/><circle cx="88.0" cy="48.0" r="5.0" fill="#cdd6db" stroke="#fff"/><circle cx="106.0" cy="48.0" r="5.0" fill="#cdd6db" stroke="#fff"/><circle cx="124.0" cy="48.0" r="5.0" fill="#cdd6db" stroke="#fff"/><circle cx="142.0" cy="48.0" r="5.0" fill="#cdd6db" stroke="#fff"/><circle cx="160.0" cy="48.0" r="6.5" fill="#b7791f" stroke="#fff"/><circle cx="178.0" cy="48.0" r="5.0" fill="#cdd6db" stroke="#fff"/><circle cx="196.0" cy="48.0" r="5.0" fill="#cdd6db" stroke="#fff"/><circle cx="214.0" cy="48.0" r="5.0" fill="#cdd6db" stroke="#fff"/><circle cx="232.0" cy="48.0" r="5.0" fill="#cdd6db" stroke="#fff"/><circle cx="250.0" cy="48.0" r="5.0" fill="#cdd6db" stroke="#fff"/></svg>