<svg xmlns="http://www.w3.org/2000/svg" viewBox="0 0 320 200" width="320" height="200"><rect width="320" height="200" fill="#f6f8f7"/><line x1="40" y1="160" x2="300" y2="160" stroke="#b9c2c7" stroke-width="1" stroke-dasharray="4 4"/><text x="28" y="164" text-anchor="middle" font-family="-apple-system,Segoe UI,PingFang SC,Microsoft YaHei,sans-serif" font-size="11" font-weight="600" fill="#9aa3a8">0</text><line x1="40" y1="122" x2="300" y2="122" stroke="#b9c2c7" stroke-width="1" stroke-dasharray="4 4"/><text x="28" y="126" text-anchor="middle" font-family="-apple-system,Segoe UI,PingFang SC,Microsoft YaHei,sans-serif" font-size="11" font-weight="600" fill="#9aa3a8">1</text><line x1="40" y1="84" x2="300" y2="84" stroke="#b9c2c7" stroke-width="1" stroke-dasharray="4 4"/><text x="28" y="88" text-anchor="middle" font-family="-apple-system,Segoe UI,PingFang SC,Microsoft YaHei,sans-serif" font-size="11" font-weight="600" fill="#9aa3a8">2</text><text x="55" y="42" text-anchor="middle" font-family="-apple-system,Segoe UI,PingFang SC,Microsoft YaHei,sans-serif" font-size="20" font-weight="700" fill="#155e75">(</text><text x="99" y="42" text-anchor="middle" font-family="-apple-system,Segoe UI,PingFang SC,Microsoft YaHei,sans-serif" font-size="20" font-weight="700" fill="#155e75">(</text><text x="143" y="42" text-anchor="middle" font-family="-apple-system,Segoe UI,PingFang SC,Microsoft YaHei,sans-serif" font-size="20" font-weight="700" fill="#b7791f">)</text><text x="187" y="42" text-anchor="middle" font-family="-apple-system,Segoe UI,PingFang SC,Microsoft YaHei,sans-serif" font-size="20" font-weight="700" fill="#155e75">(</text><text x="231" y="42" text-anchor="middle" font-family="-apple-system,Segoe UI,PingFang SC,Microsoft YaHei,sans-serif" font-size="20" font-weight="700" fill="#b7791f">)</text><text x="275" y="42" text-anchor="middle" font-family="-apple-system,Segoe UI,PingFang SC,Microsoft YaHei,sans-serif" font-size="20" font-weight="700" fill="#b7791f">)</text><polyline points="40,160 55,160 55,122 99,122 99,84 143,84 143,122 187,122 187,84 231,84 231,122 275,122 275,160 300,160" fill="none" stroke="#155e75" stroke-width="3" stroke-linecap="round" stroke-linejoin="round"/><circle cx="55" cy="122" r="4" fill="#b7791f" stroke="#fff" stroke-width="1.2"/><circle cx="99" cy="84" r="4" fill="#b7791f" stroke="#fff" stroke-width="1.2"/><circle cx="143" cy="122" r="4" fill="#b7791f" stroke="#fff" stroke-width="1.2"/><circle cx="187" cy="84" r="4" fill="#b7791f" stroke="#fff" stroke-width="1.2"/><circle cx="231" cy="122" r="4" fill="#b7791f" stroke="#fff" stroke-width="1.2"/><circle cx="275" cy="160" r="4" fill="#b7791f" stroke="#fff" stroke-width="1.2"/><text x="170" y="190" text-anchor="middle" font-family="-apple-system,Segoe UI,PingFang SC,Microsoft YaHei,sans-serif" font-size="11" font-weight="600" fill="#9aa3a8">某个隐状态神经元 = 括号深度</text></svg>